STARTFONT 2.1
COMMENT $XConsortium: lutRS12.bdf,v 1.9 94/04/02 16:11:24 gildea Exp $
COMMENT  (c) Copyright Bigelow & Holmes 1986, 1985. Lucida is a registered
COMMENT  trademark of Bigelow & Holmes. See LEGAL NOTICE file for terms 
COMMENT  of the license. 
COMMENT GRID 0012 0012 0200 0200
FONT -RFX-SereneTypewriter-Medium-R-Normal-Sans-12-120-75-75-M-70-iso10646-0400
SIZE 12 72 72
FONTBOUNDINGBOX 7 13 0 -2
STARTPROPERTIES 24
FONTNAME_REGISTRY ""
FOUNDRY "RFX"
FAMILY_NAME "SereneTypewriter"
WEIGHT_NAME "Medium"
SLANT "R"
SETWIDTH_NAME "Normal"
ADD_STYLE_NAME "Sans"
PIXEL_SIZE 12
POINT_SIZE 120
RESOLUTION_X 75
RESOLUTION_Y 75
SPACING "M"
AVERAGE_WIDTH 70
CHARSET_REGISTRY "iso10646"
CHARSET_ENCODING "0400"
FONT_ASCENT 11
FONT_DESCENT 2
DEFAULT_CHAR 0
COPYRIGHT "Copyright Bigelow & Holmes 1986, 1985."
FACE_NAME "Lucida Sans Typewriter"
COPYRIGHT2 "Cyrillic and line drawing glyphs copyright 2000 Dmitry Yu. Bolkhovityanov, bolkhov@inp.nsk.su"
SOURCEDATE "Mon May 29 11:28:17 2000"
PKGVERSION "1.1"
ASSEMBLER "cvtbdf.pl (Linux)"
ENDPROPERTIES
CHARS 461
STARTCHAR null
ENCODING 0
SWIDTH 602 0
DWIDTH 7 0
BBX 5 9 1 0
BITMAP
F8
F8
F8
F8
F8
F8
F8
F8
F8
ENDCHAR
STARTCHAR ctrlA
ENCODING 1
SWIDTH 602 0
DWIDTH 7 0
BBX 7 8 0 0
BITMAP
40
A0
00
08
14
14
3E
22
ENDCHAR
STARTCHAR ctrlB
ENCODING 2
SWIDTH 602 0
DWIDTH 7 0
BBX 7 8 0 0
BITMAP
40
A0
00
3C
22
3C
22
3C
ENDCHAR
STARTCHAR ctrlC
ENCODING 3
SWIDTH 602 0
DWIDTH 7 0
BBX 7 8 0 0
BITMAP
40
A0
00
1E
20
20
20
1E
ENDCHAR
STARTCHAR ctrlD
ENCODING 4
SWIDTH 602 0
DWIDTH 7 0
BBX 7 8 0 0
BITMAP
40
A0
00
38
24
22
24
38
ENDCHAR
STARTCHAR ctrlE
ENCODING 5
SWIDTH 602 0
DWIDTH 7 0
BBX 7 8 0 0
BITMAP
40
A0
00
3E
20
3C
20
3E
ENDCHAR
STARTCHAR ctrlF
ENCODING 6
SWIDTH 602 0
DWIDTH 7 0
BBX 7 8 0 0
BITMAP
40
A0
00
3E
20
3E
20
20
ENDCHAR
STARTCHAR ctrlG
ENCODING 7
SWIDTH 602 0
DWIDTH 7 0
BBX 7 8 0 0
BITMAP
40
A0
00
1E
20
22
22
1E
ENDCHAR
STARTCHAR ctrlH
ENCODING 8
SWIDTH 602 0
DWIDTH 7 0
BBX 7 8 0 0
BITMAP
40
A0
00
22
22
3E
22
22
ENDCHAR
STARTCHAR ctrlI
ENCODING 9
SWIDTH 602 0
DWIDTH 7 0
BBX 6 8 0 0
BITMAP
40
A0
00
1C
08
08
08
1C
ENDCHAR
STARTCHAR ctrlJ
ENCODING 10
SWIDTH 602 0
DWIDTH 7 0
BBX 7 8 0 0
BITMAP
40
A0
00
0E
04
04
04
38
ENDCHAR
STARTCHAR ldcornsqlr
ENCODING 11
SWIDTH 602 0
DWIDTH 7 0
BBX 4 7 0 4
BITMAP
10
10
10
10
10
10
F0
ENDCHAR
STARTCHAR ldcornsqur
ENCODING 12
SWIDTH 602 0
DWIDTH 7 0
BBX 4 7 0 -2
BITMAP
F0
10
10
10
10
10
10
ENDCHAR
STARTCHAR ldcornsqul
ENCODING 13
SWIDTH 602 0
DWIDTH 7 0
BBX 4 7 3 -2
BITMAP
F0
80
80
80
80
80
80
ENDCHAR
STARTCHAR ldcornsqll
ENCODING 14
SWIDTH 602 0
DWIDTH 7 0
BBX 4 7 3 4
BITMAP
80
80
80
80
80
80
F0
ENDCHAR
STARTCHAR ldcross
ENCODING 15
SWIDTH 602 0
DWIDTH 7 0
BBX 7 13 0 -2
BITMAP
10
10
10
10
10
10
FE
10
10
10
10
10
10
ENDCHAR
STARTCHAR ctrlP
ENCODING 16
SWIDTH 602 0
DWIDTH 7 0
BBX 7 8 0 0
BITMAP
40
A0
00
3C
22
3C
20
20
ENDCHAR
STARTCHAR ctrlQ
ENCODING 17
SWIDTH 602 0
DWIDTH 7 0
BBX 7 9 0 -1
BITMAP
40
A0
00
1C
22
22
22
1C
06
ENDCHAR
STARTCHAR ldhorizontal
ENCODING 18
SWIDTH 602 0
DWIDTH 7 0
BBX 7 1 0 4
BITMAP
FE
ENDCHAR
STARTCHAR ctrlS
ENCODING 19
SWIDTH 602 0
DWIDTH 7 0
BBX 7 8 0 0
BITMAP
40
A0
00
1E
20
1C
02
3C
ENDCHAR
STARTCHAR ctrlT
ENCODING 20
SWIDTH 602 0
DWIDTH 7 0
BBX 7 8 0 0
BITMAP
40
A0
00
3E
08
08
08
08
ENDCHAR
STARTCHAR ldteelft
ENCODING 21
SWIDTH 602 0
DWIDTH 7 0
BBX 4 13 3 -2
BITMAP
80
80
80
80
80
80
F0
80
80
80
80
80
80
ENDCHAR
STARTCHAR ldteert
ENCODING 22
SWIDTH 602 0
DWIDTH 7 0
BBX 4 13 0 -2
BITMAP
10
10
10
10
10
10
F0
10
10
10
10
10
10
ENDCHAR
STARTCHAR ldteebt
ENCODING 23
SWIDTH 602 0
DWIDTH 7 0
BBX 7 7 0 4
BITMAP
10
10
10
10
10
10
FE
ENDCHAR
STARTCHAR ldteetp
ENCODING 24
SWIDTH 602 0
DWIDTH 7 0
BBX 7 7 0 -2
BITMAP
FE
10
10
10
10
10
10
ENDCHAR
STARTCHAR ldvertical
ENCODING 25
SWIDTH 602 0
DWIDTH 7 0
BBX 1 13 3 -2
BITMAP
80
80
80
80
80
80
80
80
80
80
80
80
80
ENDCHAR
STARTCHAR ctrlZ
ENCODING 26
SWIDTH 602 0
DWIDTH 7 0
BBX 7 8 0 0
BITMAP
40
A0
00
3E
04
08
10
3E
ENDCHAR
STARTCHAR ctrlBRL
ENCODING 27
SWIDTH 602 0
DWIDTH 7 0
BBX 6 8 0 0
BITMAP
40
A0
00
1C
10
10
10
1C
ENDCHAR
STARTCHAR ctrlBSLASH
ENCODING 28
SWIDTH 602 0
DWIDTH 7 0
BBX 7 8 0 0
BITMAP
40
A0
00
20
10
08
04
02
ENDCHAR
STARTCHAR ctrlBRR
ENCODING 29
SWIDTH 602 0
DWIDTH 7 0
BBX 6 8 0 0
BITMAP
40
A0
00
1C
04
04
04
1C
ENDCHAR
STARTCHAR ctrlCARET
ENCODING 30
SWIDTH 602 0
DWIDTH 7 0
BBX 7 6 0 2
BITMAP
40
A0
00
08
14
22
ENDCHAR
STARTCHAR ctrlUND
ENCODING 31
SWIDTH 602 0
DWIDTH 7 0
BBX 7 8 0 0
BITMAP
40
A0
00
00
00
00
00
3E
ENDCHAR
STARTCHAR space
ENCODING 32
SWIDTH 602 0
DWIDTH 7 0
BBX 0 0 0 0
BITMAP
ENDCHAR
STARTCHAR exclam
ENCODING 33
SWIDTH 602 0
DWIDTH 7 0
BBX 2 9 3 0
BITMAP
C0
C0
C0
C0
C0
80
00
C0
C0
ENDCHAR
STARTCHAR quotedbl
ENCODING 34
SWIDTH 602 0
DWIDTH 7 0
BBX 3 3 2 7
BITMAP
A0
A0
A0
ENDCHAR
STARTCHAR numbersign
ENCODING 35
SWIDTH 602 0
DWIDTH 7 0
BBX 6 9 1 0
BITMAP
48
48
FC
48
48
FC
48
48
48
ENDCHAR
STARTCHAR dollar
ENCODING 36
SWIDTH 602 0
DWIDTH 7 0
BBX 5 11 1 -1
BITMAP
20
70
A8
A0
60
30
28
28
A8
70
20
ENDCHAR
STARTCHAR percent
ENCODING 37
SWIDTH 602 0
DWIDTH 7 0
BBX 7 9 0 0
BITMAP
60
92
94
68
10
2C
52
92
0C
ENDCHAR
STARTCHAR ampersand
ENCODING 38
SWIDTH 602 0
DWIDTH 7 0
BBX 6 9 1 0
BITMAP
30
48
48
30
64
94
88
88
74
ENDCHAR
STARTCHAR quotesingle
ENCODING 39
SWIDTH 602 0
DWIDTH 7 0
BBX 1 3 3 7
BITMAP
80
80
80
ENDCHAR
STARTCHAR parenleft
ENCODING 40
SWIDTH 602 0
DWIDTH 7 0
BBX 4 11 2 -1
BITMAP
30
40
40
80
80
80
80
80
40
40
30
ENDCHAR
STARTCHAR parenright
ENCODING 41
SWIDTH 602 0
DWIDTH 7 0
BBX 4 11 1 -1
BITMAP
C0
20
20
10
10
10
10
10
20
20
C0
ENDCHAR
STARTCHAR asterisk
ENCODING 42
SWIDTH 602 0
DWIDTH 7 0
BBX 5 5 1 4
BITMAP
20
A8
50
A8
20
ENDCHAR
STARTCHAR plus
ENCODING 43
SWIDTH 602 0
DWIDTH 7 0
BBX 7 7 0 1
BITMAP
10
10
10
FE
10
10
10
ENDCHAR
STARTCHAR comma
ENCODING 44
SWIDTH 602 0
DWIDTH 7 0
BBX 3 3 2 -1
BITMAP
60
60
C0
ENDCHAR
STARTCHAR minus
ENCODING 45
SWIDTH 602 0
DWIDTH 7 0
BBX 7 1 0 4
BITMAP
FE
ENDCHAR
STARTCHAR period
ENCODING 46
SWIDTH 602 0
DWIDTH 7 0
BBX 2 2 2 0
BITMAP
C0
C0
ENDCHAR
STARTCHAR slash
ENCODING 47
SWIDTH 602 0
DWIDTH 7 0
BBX 5 11 1 -1
BITMAP
08
08
10
10
20
20
20
40
40
80
80
ENDCHAR
STARTCHAR zero
ENCODING 48
SWIDTH 602 0
DWIDTH 7 0
BBX 5 9 1 0
BITMAP
70
88
88
88
88
88
88
88
70
ENDCHAR
STARTCHAR one
ENCODING 49
SWIDTH 602 0
DWIDTH 7 0
BBX 3 9 1 0
BITMAP
20
60
A0
20
20
20
20
20
20
ENDCHAR
STARTCHAR two
ENCODING 50
SWIDTH 602 0
DWIDTH 7 0
BBX 5 9 1 0
BITMAP
70
88
08
08
10
20
40
80
F8
ENDCHAR
STARTCHAR three
ENCODING 51
SWIDTH 602 0
DWIDTH 7 0
BBX 5 9 1 0
BITMAP
70
88
08
08
30
08
08
88
70
ENDCHAR
STARTCHAR four
ENCODING 52
SWIDTH 602 0
DWIDTH 7 0
BBX 6 9 0 0
BITMAP
08
18
28
48
88
FC
08
08
08
ENDCHAR
STARTCHAR five
ENCODING 53
SWIDTH 602 0
DWIDTH 7 0
BBX 5 9 1 0
BITMAP
F8
80
80
F0
08
08
08
88
70
ENDCHAR
STARTCHAR six
ENCODING 54
SWIDTH 602 0
DWIDTH 7 0
BBX 5 9 1 0
BITMAP
70
88
80
80
F0
88
88
88
70
ENDCHAR
STARTCHAR seven
ENCODING 55
SWIDTH 602 0
DWIDTH 7 0
BBX 5 9 1 0
BITMAP
F8
08
08
10
20
20
40
40
40
ENDCHAR
STARTCHAR eight
ENCODING 56
SWIDTH 602 0
DWIDTH 7 0
BBX 5 9 1 0
BITMAP
70
88
88
88
70
88
88
88
70
ENDCHAR
STARTCHAR nine
ENCODING 57
SWIDTH 602 0
DWIDTH 7 0
BBX 5 9 1 0
BITMAP
70
88
88
88
78
08
08
88
70
ENDCHAR
STARTCHAR colon
ENCODING 58
SWIDTH 602 0
DWIDTH 7 0
BBX 2 7 2 0
BITMAP
C0
C0
00
00
00
C0
C0
ENDCHAR
STARTCHAR semicolon
ENCODING 59
SWIDTH 602 0
DWIDTH 7 0
BBX 3 8 1 -1
BITMAP
60
60
00
00
00
60
60
C0
ENDCHAR
STARTCHAR less
ENCODING 60
SWIDTH 602 0
DWIDTH 7 0
BBX 4 7 2 1
BITMAP
10
20
40
80
40
20
10
ENDCHAR
STARTCHAR equal
ENCODING 61
SWIDTH 602 0
DWIDTH 7 0
BBX 7 3 0 3
BITMAP
FE
00
FE
ENDCHAR
STARTCHAR greater
ENCODING 62
SWIDTH 602 0
DWIDTH 7 0
BBX 4 7 2 1
BITMAP
80
40
20
10
20
40
80
ENDCHAR
STARTCHAR question
ENCODING 63
SWIDTH 602 0
DWIDTH 7 0
BBX 5 9 1 0
BITMAP
F0
08
08
08
70
40
00
40
40
ENDCHAR
STARTCHAR at
ENCODING 64
SWIDTH 602 0
DWIDTH 7 0
BBX 7 9 0 0
BITMAP
38
44
9C
A4
A4
AC
92
40
38
ENDCHAR
STARTCHAR A
ENCODING 65
SWIDTH 602 0
DWIDTH 7 0
BBX 6 9 1 0
BITMAP
30
30
48
48
48
FC
84
84
84
ENDCHAR
STARTCHAR B
ENCODING 66
SWIDTH 602 0
DWIDTH 7 0
BBX 5 9 1 0
BITMAP
F0
88
88
88
F0
88
88
88
F0
ENDCHAR
STARTCHAR C
ENCODING 67
SWIDTH 602 0
DWIDTH 7 0
BBX 5 9 1 0
BITMAP
38
48
80
80
80
80
80
40
38
ENDCHAR
STARTCHAR D
ENCODING 68
SWIDTH 602 0
DWIDTH 7 0
BBX 5 9 1 0
BITMAP
E0
90
88
88
88
88
88
90
E0
ENDCHAR
STARTCHAR E
ENCODING 69
SWIDTH 602 0
DWIDTH 7 0
BBX 5 9 1 0
BITMAP
F8
80
80
80
F0
80
80
80
F8
ENDCHAR
STARTCHAR F
ENCODING 70
SWIDTH 602 0
DWIDTH 7 0
BBX 4 9 2 0
BITMAP
F0
80
80
80
F0
80
80
80
80
ENDCHAR
STARTCHAR G
ENCODING 71
SWIDTH 602 0
DWIDTH 7 0
BBX 5 9 1 0
BITMAP
38
48
80
80
80
88
88
48
38
ENDCHAR
STARTCHAR H
ENCODING 72
SWIDTH 602 0
DWIDTH 7 0
BBX 5 9 1 0
BITMAP
88
88
88
88
F8
88
88
88
88
ENDCHAR
STARTCHAR I
ENCODING 73
SWIDTH 602 0
DWIDTH 7 0
BBX 5 9 1 0
BITMAP
F8
20
20
20
20
20
20
20
F8
ENDCHAR
STARTCHAR J
ENCODING 74
SWIDTH 602 0
DWIDTH 7 0
BBX 6 9 0 0
BITMAP
7C
10
10
10
10
10
10
10
E0
ENDCHAR
STARTCHAR K
ENCODING 75
SWIDTH 602 0
DWIDTH 7 0
BBX 6 9 1 0
BITMAP
84
88
90
A0
E0
90
88
84
84
ENDCHAR
STARTCHAR L
ENCODING 76
SWIDTH 602 0
DWIDTH 7 0
BBX 4 9 2 0
BITMAP
80
80
80
80
80
80
80
80
F0
ENDCHAR
STARTCHAR M
ENCODING 77
SWIDTH 602 0
DWIDTH 7 0
BBX 6 9 1 0
BITMAP
84
CC
CC
B4
B4
B4
84
84
84
ENDCHAR
STARTCHAR N
ENCODING 78
SWIDTH 602 0
DWIDTH 7 0
BBX 5 9 1 0
BITMAP
88
C8
C8
A8
A8
98
98
88
88
ENDCHAR
STARTCHAR O
ENCODING 79
SWIDTH 602 0
DWIDTH 7 0
BBX 6 9 1 0
BITMAP
30
48
84
84
84
84
84
48
30
ENDCHAR
STARTCHAR P
ENCODING 80
SWIDTH 602 0
DWIDTH 7 0
BBX 5 9 1 0
BITMAP
F0
88
88
88
88
F0
80
80
80
ENDCHAR
STARTCHAR Q
ENCODING 81
SWIDTH 602 0
DWIDTH 7 0
BBX 6 11 1 -2
BITMAP
30
48
84
84
84
84
84
48
30
18
0C
ENDCHAR
STARTCHAR R
ENCODING 82
SWIDTH 602 0
DWIDTH 7 0
BBX 5 9 1 0
BITMAP
F0
88
88
88
F0
90
88
88
88
ENDCHAR
STARTCHAR S
ENCODING 83
SWIDTH 602 0
DWIDTH 7 0
BBX 5 9 1 0
BITMAP
78
80
80
C0
70
18
08
08
F0
ENDCHAR
STARTCHAR T
ENCODING 84
SWIDTH 602 0
DWIDTH 7 0
BBX 7 9 0 0
BITMAP
FE
10
10
10
10
10
10
10
10
ENDCHAR
STARTCHAR U
ENCODING 85
SWIDTH 602 0
DWIDTH 7 0
BBX 5 9 1 0
BITMAP
88
88
88
88
88
88
88
88
70
ENDCHAR
STARTCHAR V
ENCODING 86
SWIDTH 602 0
DWIDTH 7 0
BBX 6 9 1 0
BITMAP
84
84
84
84
48
48
48
30
30
ENDCHAR
STARTCHAR W
ENCODING 87
SWIDTH 602 0
DWIDTH 7 0
BBX 7 9 0 0
BITMAP
82
92
92
92
AA
6C
44
44
44
ENDCHAR
STARTCHAR X
ENCODING 88
SWIDTH 602 0
DWIDTH 7 0
BBX 5 9 1 0
BITMAP
88
88
50
50
20
50
50
88
88
ENDCHAR
STARTCHAR Y
ENCODING 89
SWIDTH 602 0
DWIDTH 7 0
BBX 5 9 1 0
BITMAP
88
88
88
50
50
20
20
20
20
ENDCHAR
STARTCHAR Z
ENCODING 90
SWIDTH 602 0
DWIDTH 7 0
BBX 5 9 1 0
BITMAP
F8
08
10
10
20
40
40
80
F8
ENDCHAR
STARTCHAR bracketleft
ENCODING 91
SWIDTH 602 0
DWIDTH 7 0
BBX 3 11 3 -1
BITMAP
E0
80
80
80
80
80
80
80
80
80
E0
ENDCHAR
STARTCHAR backslash
ENCODING 92
SWIDTH 602 0
DWIDTH 7 0
BBX 5 11 1 -1
BITMAP
80
80
40
40
20
20
20
10
10
08
08
ENDCHAR
STARTCHAR bracketright
ENCODING 93
SWIDTH 602 0
DWIDTH 7 0
BBX 3 11 1 -1
BITMAP
E0
20
20
20
20
20
20
20
20
20
E0
ENDCHAR
STARTCHAR asciicircum
ENCODING 94
SWIDTH 602 0
DWIDTH 7 0
BBX 5 6 1 3
BITMAP
20
20
50
50
88
88
ENDCHAR
STARTCHAR underscore
ENCODING 95
SWIDTH 602 0
DWIDTH 7 0
BBX 7 1 0 -1
BITMAP
FE
ENDCHAR
STARTCHAR grave
ENCODING 96
SWIDTH 602 0
DWIDTH 7 0
BBX 2 2 3 8
BITMAP
80
40
ENDCHAR
STARTCHAR a
ENCODING 97
SWIDTH 602 0
DWIDTH 7 0
BBX 6 7 1 0
BITMAP
70
88
08
78
88
88
74
ENDCHAR
STARTCHAR b
ENCODING 98
SWIDTH 602 0
DWIDTH 7 0
BBX 5 10 1 0
BITMAP
80
80
80
B0
C8
88
88
88
88
F0
ENDCHAR
STARTCHAR c
ENCODING 99
SWIDTH 602 0
DWIDTH 7 0
BBX 5 7 1 0
BITMAP
38
40
80
80
80
40
38
ENDCHAR
STARTCHAR d
ENCODING 100
SWIDTH 602 0
DWIDTH 7 0
BBX 5 10 1 0
BITMAP
08
08
08
78
88
88
88
88
98
68
ENDCHAR
STARTCHAR e
ENCODING 101
SWIDTH 602 0
DWIDTH 7 0
BBX 5 7 1 0
BITMAP
70
88
88
F8
80
88
70
ENDCHAR
STARTCHAR f
ENCODING 102
SWIDTH 602 0
DWIDTH 7 0
BBX 5 10 1 0
BITMAP
38
40
40
F8
40
40
40
40
40
40
ENDCHAR
STARTCHAR g
ENCODING 103
SWIDTH 602 0
DWIDTH 7 0
BBX 5 9 1 -2
BITMAP
78
88
88
88
98
68
08
08
70
ENDCHAR
STARTCHAR h
ENCODING 104
SWIDTH 602 0
DWIDTH 7 0
BBX 5 10 1 0
BITMAP
80
80
80
B0
C8
88
88
88
88
88
ENDCHAR
STARTCHAR i
ENCODING 105
SWIDTH 602 0
DWIDTH 7 0
BBX 3 10 1 0
BITMAP
20
20
00
E0
20
20
20
20
20
20
ENDCHAR
STARTCHAR j
ENCODING 106
SWIDTH 602 0
DWIDTH 7 0
BBX 4 12 1 -2
BITMAP
10
10
00
F0
10
10
10
10
10
10
10
E0
ENDCHAR
STARTCHAR k
ENCODING 107
SWIDTH 602 0
DWIDTH 7 0
BBX 6 10 1 0
BITMAP
80
80
80
88
90
A0
E0
90
88
84
ENDCHAR
STARTCHAR l
ENCODING 108
SWIDTH 602 0
DWIDTH 7 0
BBX 3 10 1 0
BITMAP
E0
20
20
20
20
20
20
20
20
20
ENDCHAR
STARTCHAR m
ENCODING 109
SWIDTH 602 0
DWIDTH 7 0
BBX 7 7 0 0
BITMAP
A4
DA
92
92
92
92
92
ENDCHAR
STARTCHAR n
ENCODING 110
SWIDTH 602 0
DWIDTH 7 0
BBX 5 7 1 0
BITMAP
B0
C8
88
88
88
88
88
ENDCHAR
STARTCHAR o
ENCODING 111
SWIDTH 602 0
DWIDTH 7 0
BBX 5 7 1 0
BITMAP
70
88
88
88
88
88
70
ENDCHAR
STARTCHAR p
ENCODING 112
SWIDTH 602 0
DWIDTH 7 0
BBX 5 9 1 -2
BITMAP
B0
C8
88
88
88
88
F0
80
80
ENDCHAR
STARTCHAR q
ENCODING 113
SWIDTH 602 0
DWIDTH 7 0
BBX 5 9 1 -2
BITMAP
78
88
88
88
88
98
68
08
08
ENDCHAR
STARTCHAR r
ENCODING 114
SWIDTH 602 0
DWIDTH 7 0
BBX 4 7 2 0
BITMAP
B0
C0
80
80
80
80
80
ENDCHAR
STARTCHAR s
ENCODING 115
SWIDTH 602 0
DWIDTH 7 0
BBX 5 7 1 0
BITMAP
78
80
80
70
08
08
F0
ENDCHAR
STARTCHAR t
ENCODING 116
SWIDTH 602 0
DWIDTH 7 0
BBX 5 9 1 0
BITMAP
40
40
F8
40
40
40
40
40
38
ENDCHAR
STARTCHAR u
ENCODING 117
SWIDTH 602 0
DWIDTH 7 0
BBX 5 7 1 0
BITMAP
88
88
88
88
88
98
68
ENDCHAR
STARTCHAR v
ENCODING 118
SWIDTH 602 0
DWIDTH 7 0
BBX 5 7 1 0
BITMAP
88
88
88
50
50
20
20
ENDCHAR
STARTCHAR w
ENCODING 119
SWIDTH 602 0
DWIDTH 7 0
BBX 7 7 0 0
BITMAP
82
92
92
AA
44
44
44
ENDCHAR
STARTCHAR x
ENCODING 120
SWIDTH 602 0
DWIDTH 7 0
BBX 5 7 1 0
BITMAP
88
88
50
20
50
88
88
ENDCHAR
STARTCHAR y
ENCODING 121
SWIDTH 602 0
DWIDTH 7 0
BBX 5 9 1 -2
BITMAP
88
88
88
50
50
20
20
40
C0
ENDCHAR
STARTCHAR z
ENCODING 122
SWIDTH 602 0
DWIDTH 7 0
BBX 5 7 1 0
BITMAP
F8
08
10
20
40
80
F8
ENDCHAR
STARTCHAR braceleft
ENCODING 123
SWIDTH 602 0
DWIDTH 7 0
BBX 4 11 2 -1
BITMAP
30
40
40
40
20
C0
20
40
40
40
30
ENDCHAR
STARTCHAR bar
ENCODING 124
SWIDTH 602 0
DWIDTH 7 0
BBX 1 11 3 -1
BITMAP
80
80
80
80
80
80
80
80
80
80
80
ENDCHAR
STARTCHAR braceright
ENCODING 125
SWIDTH 602 0
DWIDTH 7 0
BBX 4 11 1 -1
BITMAP
C0
20
20
20
40
30
40
20
20
20
C0
ENDCHAR
STARTCHAR asciitilde
ENCODING 126
SWIDTH 602 0
DWIDTH 7 0
BBX 7 2 0 4
BITMAP
72
9C
ENDCHAR
STARTCHAR space
ENCODING 160
SWIDTH 602 0
DWIDTH 7 0
BBX 0 0 0 0
BITMAP
ENDCHAR
STARTCHAR exclamdown
ENCODING 161
SWIDTH 602 0
DWIDTH 7 0
BBX 2 9 3 -2
BITMAP
C0
C0
00
80
C0
C0
C0
C0
C0
ENDCHAR
STARTCHAR cent
ENCODING 162
SWIDTH 602 0
DWIDTH 7 0
BBX 6 9 1 0
BITMAP
10
3C
50
90
90
90
50
3C
10
ENDCHAR
STARTCHAR sterling
ENCODING 163
SWIDTH 602 0
DWIDTH 7 0
BBX 5 9 1 0
BITMAP
38
40
40
40
F0
40
40
40
F8
ENDCHAR
STARTCHAR currency
ENCODING 164
SWIDTH 602 0
DWIDTH 7 0
BBX 7 7 0 1
BITMAP
82
7C
44
44
44
7C
82
ENDCHAR
STARTCHAR yen
ENCODING 165
SWIDTH 602 0
DWIDTH 7 0
BBX 5 9 1 0
BITMAP
88
88
88
50
F8
20
F8
20
20
ENDCHAR
STARTCHAR brokenbar
ENCODING 166
SWIDTH 602 0
DWIDTH 7 0
BBX 1 11 3 -1
BITMAP
80
80
80
80
00
00
80
80
80
80
80
ENDCHAR
STARTCHAR section
ENCODING 167
SWIDTH 602 0
DWIDTH 7 0
BBX 5 10 1 -1
BITMAP
30
48
40
A0
90
48
28
10
90
60
ENDCHAR
STARTCHAR dieresis
ENCODING 168
SWIDTH 602 0
DWIDTH 7 0
BBX 4 2 2 8
BITMAP
90
90
ENDCHAR
STARTCHAR copyright
ENCODING 169
SWIDTH 602 0
DWIDTH 7 0
BBX 7 9 0 0
BITMAP
38
44
9A
A2
A2
A2
9A
44
38
ENDCHAR
STARTCHAR ordfeminine
ENCODING 170
SWIDTH 602 0
DWIDTH 7 0
BBX 5 6 1 3
BITMAP
60
10
10
70
90
68
ENDCHAR
STARTCHAR guillemotleft
ENCODING 171
SWIDTH 602 0
DWIDTH 7 0
BBX 6 5 0 1
BITMAP
24
48
90
48
24
ENDCHAR
STARTCHAR logicalnot
ENCODING 172
SWIDTH 602 0
DWIDTH 7 0
BBX 7 4 0 2
BITMAP
FE
02
02
02
ENDCHAR
STARTCHAR hyphen
ENCODING 173
SWIDTH 602 0
DWIDTH 7 0
BBX 3 1 2 4
BITMAP
E0
ENDCHAR
STARTCHAR registered
ENCODING 174
SWIDTH 602 0
DWIDTH 7 0
BBX 7 7 0 2
BITMAP
38
44
BA
B2
AA
44
38
ENDCHAR
STARTCHAR macron
ENCODING 175
SWIDTH 602 0
DWIDTH 7 0
BBX 4 1 2 9
BITMAP
F0
ENDCHAR
STARTCHAR degree
ENCODING 176
SWIDTH 602 0
DWIDTH 7 0
BBX 4 3 1 6
BITMAP
60
90
60
ENDCHAR
STARTCHAR plusminus
ENCODING 177
SWIDTH 602 0
DWIDTH 7 0
BBX 7 7 0 1
BITMAP
10
10
FE
10
10
00
FE
ENDCHAR
STARTCHAR twosuperior
ENCODING 178
SWIDTH 602 0
DWIDTH 7 0
BBX 4 6 2 3
BITMAP
E0
10
10
60
80
F0
ENDCHAR
STARTCHAR threesuperior
ENCODING 179
SWIDTH 602 0
DWIDTH 7 0
BBX 4 6 2 3
BITMAP
E0
10
60
10
10
E0
ENDCHAR
STARTCHAR acute
ENCODING 180
SWIDTH 602 0
DWIDTH 7 0
BBX 2 2 3 8
BITMAP
40
80
ENDCHAR
STARTCHAR mu
ENCODING 181
SWIDTH 602 0
DWIDTH 7 0
BBX 5 9 1 -2
BITMAP
88
88
88
88
88
D8
A8
80
80
ENDCHAR
STARTCHAR paragraph
ENCODING 182
SWIDTH 602 0
DWIDTH 7 0
BBX 5 10 1 -1
BITMAP
78
E8
E8
E8
68
28
28
28
28
28
ENDCHAR
STARTCHAR periodcentered
ENCODING 183
SWIDTH 602 0
DWIDTH 7 0
BBX 3 3 2 3
BITMAP
E0
E0
E0
ENDCHAR
STARTCHAR cedilla
ENCODING 184
SWIDTH 602 0
DWIDTH 7 0
BBX 3 2 2 -2
BITMAP
20
C0
ENDCHAR
STARTCHAR onesuperior
ENCODING 185
SWIDTH 602 0
DWIDTH 7 0
BBX 3 6 1 3
BITMAP
20
E0
20
20
20
20
ENDCHAR
STARTCHAR ordmasculine
ENCODING 186
SWIDTH 602 0
DWIDTH 7 0
BBX 5 6 1 3
BITMAP
70
88
88
88
88
70
ENDCHAR
STARTCHAR guillemotright
ENCODING 187
SWIDTH 602 0
DWIDTH 7 0
BBX 6 5 1 1
BITMAP
90
48
24
48
90
ENDCHAR
STARTCHAR onequarter
ENCODING 188
SWIDTH 602 0
DWIDTH 7 0
BBX 7 9 0 0
BITMAP
C8
48
50
50
24
2C
54
9E
84
ENDCHAR
STARTCHAR onehalf
ENCODING 189
SWIDTH 602 0
DWIDTH 7 0
BBX 7 9 0 0
BITMAP
C8
48
50
50
2C
22
44
88
8E
ENDCHAR
STARTCHAR threequarters
ENCODING 190
SWIDTH 602 0
DWIDTH 7 0
BBX 7 9 0 0
BITMAP
C4
24
C8
30
D4
2C
54
9E
84
ENDCHAR
STARTCHAR questiondown
ENCODING 191
SWIDTH 602 0
DWIDTH 7 0
BBX 5 9 1 -2
BITMAP
10
10
00
10
70
80
80
80
78
ENDCHAR
STARTCHAR Agrave
ENCODING 192
SWIDTH 602 0
DWIDTH 7 0
BBX 6 11 1 0
BITMAP
20
10
00
30
30
48
48
FC
84
84
84
ENDCHAR
STARTCHAR Aacute
ENCODING 193
SWIDTH 602 0
DWIDTH 7 0
BBX 6 11 1 0
BITMAP
10
20
00
30
30
48
48
FC
84
84
84
ENDCHAR
STARTCHAR Acircumflex
ENCODING 194
SWIDTH 602 0
DWIDTH 7 0
BBX 6 11 1 0
BITMAP
30
48
00
30
30
48
48
FC
84
84
84
ENDCHAR
STARTCHAR Atilde
ENCODING 195
SWIDTH 602 0
DWIDTH 7 0
BBX 6 11 1 0
BITMAP
28
50
00
30
30
48
48
FC
84
84
84
ENDCHAR
STARTCHAR Adieresis
ENCODING 196
SWIDTH 602 0
DWIDTH 7 0
BBX 6 11 1 0
BITMAP
48
48
00
30
30
48
48
FC
84
84
84
ENDCHAR
STARTCHAR Aring
ENCODING 197
SWIDTH 602 0
DWIDTH 7 0
BBX 6 10 1 0
BITMAP
30
48
30
30
48
48
FC
84
84
84
ENDCHAR
STARTCHAR AE
ENCODING 198
SWIDTH 602 0
DWIDTH 7 0
BBX 7 9 0 0
BITMAP
3E
30
50
50
5E
F0
90
90
9E
ENDCHAR
STARTCHAR Ccedilla
ENCODING 199
SWIDTH 602 0
DWIDTH 7 0
BBX 5 11 1 -2
BITMAP
38
48
80
80
80
80
80
40
38
10
60
ENDCHAR
STARTCHAR Egrave
ENCODING 200
SWIDTH 602 0
DWIDTH 7 0
BBX 5 11 1 0
BITMAP
40
20
00
F8
80
80
F0
80
80
80
F8
ENDCHAR
STARTCHAR Eacute
ENCODING 201
SWIDTH 602 0
DWIDTH 7 0
BBX 5 11 1 0
BITMAP
10
20
00
F8
80
80
F0
80
80
80
F8
ENDCHAR
STARTCHAR Ecircumflex
ENCODING 202
SWIDTH 602 0
DWIDTH 7 0
BBX 5 11 1 0
BITMAP
20
50
00
F8
80
80
F0
80
80
80
F8
ENDCHAR
STARTCHAR Edieresis
ENCODING 203
SWIDTH 602 0
DWIDTH 7 0
BBX 5 11 1 0
BITMAP
50
50
00
F8
80
80
F0
80
80
80
F8
ENDCHAR
STARTCHAR Igrave
ENCODING 204
SWIDTH 602 0
DWIDTH 7 0
BBX 5 11 1 0
BITMAP
20
10
00
F8
20
20
20
20
20
20
F8
ENDCHAR
STARTCHAR Iacute
ENCODING 205
SWIDTH 602 0
DWIDTH 7 0
BBX 5 11 1 0
BITMAP
10
20
00
F8
20
20
20
20
20
20
F8
ENDCHAR
STARTCHAR Icircumflex
ENCODING 206
SWIDTH 602 0
DWIDTH 7 0
BBX 5 11 1 0
BITMAP
20
50
00
F8
20
20
20
20
20
20
F8
ENDCHAR
STARTCHAR Idieresis
ENCODING 207
SWIDTH 602 0
DWIDTH 7 0
BBX 5 11 1 0
BITMAP
50
50
00
F8
20
20
20
20
20
20
F8
ENDCHAR
STARTCHAR Eth
ENCODING 208
SWIDTH 602 0
DWIDTH 7 0
BBX 6 9 0 0
BITMAP
70
48
44
44
F4
44
44
48
70
ENDCHAR
STARTCHAR Ntilde
ENCODING 209
SWIDTH 602 0
DWIDTH 7 0
BBX 5 11 1 0
BITMAP
28
50
00
88
C8
C8
A8
A8
98
98
88
ENDCHAR
STARTCHAR Ograve
ENCODING 210
SWIDTH 602 0
DWIDTH 7 0
BBX 6 11 1 0
BITMAP
20
10
00
30
48
84
84
84
84
48
30
ENDCHAR
STARTCHAR Oacute
ENCODING 211
SWIDTH 602 0
DWIDTH 7 0
BBX 6 11 1 0
BITMAP
10
20
00
30
48
84
84
84
84
48
30
ENDCHAR
STARTCHAR Ocircumflex
ENCODING 212
SWIDTH 602 0
DWIDTH 7 0
BBX 6 11 1 0
BITMAP
10
28
00
30
48
84
84
84
84
48
30
ENDCHAR
STARTCHAR Otilde
ENCODING 213
SWIDTH 602 0
DWIDTH 7 0
BBX 6 11 1 0
BITMAP
28
50
00
30
48
84
84
84
84
48
30
ENDCHAR
STARTCHAR Odieresis
ENCODING 214
SWIDTH 602 0
DWIDTH 7 0
BBX 6 11 1 0
BITMAP
48
48
00
30
48
84
84
84
84
48
30
ENDCHAR
STARTCHAR multiply
ENCODING 215
SWIDTH 602 0
DWIDTH 7 0
BBX 5 5 1 2
BITMAP
88
50
20
50
88
ENDCHAR
STARTCHAR Oslash
ENCODING 216
SWIDTH 602 0
DWIDTH 7 0
BBX 6 9 1 0
BITMAP
34
48
8C
94
B4
A4
C4
48
B0
ENDCHAR
STARTCHAR Ugrave
ENCODING 217
SWIDTH 602 0
DWIDTH 7 0
BBX 5 11 1 0
BITMAP
40
20
00
88
88
88
88
88
88
88
70
ENDCHAR
STARTCHAR Uacute
ENCODING 218
SWIDTH 602 0
DWIDTH 7 0
BBX 5 11 1 0
BITMAP
10
20
00
88
88
88
88
88
88
88
70
ENDCHAR
STARTCHAR Ucircumflex
ENCODING 219
SWIDTH 602 0
DWIDTH 7 0
BBX 5 11 1 0
BITMAP
20
50
00
88
88
88
88
88
88
88
70
ENDCHAR
STARTCHAR Udieresis
ENCODING 220
SWIDTH 602 0
DWIDTH 7 0
BBX 5 11 1 0
BITMAP
50
50
00
88
88
88
88
88
88
88
70
ENDCHAR
STARTCHAR Yacute
ENCODING 221
SWIDTH 602 0
DWIDTH 7 0
BBX 5 11 1 0
BITMAP
10
20
00
88
88
50
50
20
20
20
20
ENDCHAR
STARTCHAR Thorn
ENCODING 222
SWIDTH 602 0
DWIDTH 7 0
BBX 5 9 1 0
BITMAP
80
80
F0
88
88
88
F0
80
80
ENDCHAR
STARTCHAR germandbls
ENCODING 223
SWIDTH 602 0
DWIDTH 7 0
BBX 5 10 1 0
BITMAP
60
90
90
A0
A0
90
88
88
88
90
ENDCHAR
STARTCHAR agrave
ENCODING 224
SWIDTH 602 0
DWIDTH 7 0
BBX 6 10 1 0
BITMAP
20
10
00
70
88
08
78
88
88
74
ENDCHAR
STARTCHAR aacute
ENCODING 225
SWIDTH 602 0
DWIDTH 7 0
BBX 6 10 1 0
BITMAP
10
20
00
70
88
08
78
88
88
74
ENDCHAR
STARTCHAR acircumflex
ENCODING 226
SWIDTH 602 0
DWIDTH 7 0
BBX 6 10 1 0
BITMAP
20
50
00
70
88
08
78
88
88
74
ENDCHAR
STARTCHAR atilde
ENCODING 227
SWIDTH 602 0
DWIDTH 7 0
BBX 6 10 1 0
BITMAP
28
50
00
70
88
08
78
88
88
74
ENDCHAR
STARTCHAR adieresis
ENCODING 228
SWIDTH 602 0
DWIDTH 7 0
BBX 6 10 1 0
BITMAP
50
50
00
70
88
08
78
88
88
74
ENDCHAR
STARTCHAR aring
ENCODING 229
SWIDTH 602 0
DWIDTH 7 0
BBX 6 10 1 0
BITMAP
30
48
30
70
88
08
78
88
88
74
ENDCHAR
STARTCHAR ae
ENCODING 230
SWIDTH 602 0
DWIDTH 7 0
BBX 7 7 0 0
BITMAP
6C
12
12
7E
90
90
6E
ENDCHAR
STARTCHAR ccedilla
ENCODING 231
SWIDTH 602 0
DWIDTH 7 0
BBX 5 9 1 -2
BITMAP
38
40
80
80
80
40
38
10
60
ENDCHAR
STARTCHAR egrave
ENCODING 232
SWIDTH 602 0
DWIDTH 7 0
BBX 5 10 1 0
BITMAP
20
10
00
70
88
88
F8
80
88
70
ENDCHAR
STARTCHAR eacute
ENCODING 233
SWIDTH 602 0
DWIDTH 7 0
BBX 5 10 1 0
BITMAP
10
20
00
70
88
88
F8
80
88
70
ENDCHAR
STARTCHAR ecircumflex
ENCODING 234
SWIDTH 602 0
DWIDTH 7 0
BBX 5 10 1 0
BITMAP
20
50
00
70
88
88
F8
80
88
70
ENDCHAR
STARTCHAR edieresis
ENCODING 235
SWIDTH 602 0
DWIDTH 7 0
BBX 5 10 1 0
BITMAP
50
50
00
70
88
88
F8
80
88
70
ENDCHAR
STARTCHAR igrave
ENCODING 236
SWIDTH 602 0
DWIDTH 7 0
BBX 3 10 1 0
BITMAP
40
20
00
E0
20
20
20
20
20
20
ENDCHAR
STARTCHAR iacute
ENCODING 237
SWIDTH 602 0
DWIDTH 7 0
BBX 3 10 1 0
BITMAP
20
40
00
E0
20
20
20
20
20
20
ENDCHAR
STARTCHAR icircumflex
ENCODING 238
SWIDTH 602 0
DWIDTH 7 0
BBX 4 10 1 0
BITMAP
20
50
00
E0
20
20
20
20
20
20
ENDCHAR
STARTCHAR idieresis
ENCODING 239
SWIDTH 602 0
DWIDTH 7 0
BBX 4 10 1 0
BITMAP
50
50
00
E0
20
20
20
20
20
20
ENDCHAR
STARTCHAR eth
ENCODING 240
SWIDTH 602 0
DWIDTH 7 0
BBX 5 10 1 0
BITMAP
D8
20
D0
08
78
88
88
88
88
70
ENDCHAR
STARTCHAR ntilde
ENCODING 241
SWIDTH 602 0
DWIDTH 7 0
BBX 5 10 1 0
BITMAP
28
50
00
B0
C8
88
88
88
88
88
ENDCHAR
STARTCHAR ograve
ENCODING 242
SWIDTH 602 0
DWIDTH 7 0
BBX 5 10 1 0
BITMAP
20
10
00
70
88
88
88
88
88
70
ENDCHAR
STARTCHAR oacute
ENCODING 243
SWIDTH 602 0
DWIDTH 7 0
BBX 5 10 1 0
BITMAP
10
20
00
70
88
88
88
88
88
70
ENDCHAR
STARTCHAR ocircumflex
ENCODING 244
SWIDTH 602 0
DWIDTH 7 0
BBX 5 10 1 0
BITMAP
20
50
00
70
88
88
88
88
88
70
ENDCHAR
STARTCHAR otilde
ENCODING 245
SWIDTH 602 0
DWIDTH 7 0
BBX 5 10 1 0
BITMAP
28
50
00
70
88
88
88
88
88
70
ENDCHAR
STARTCHAR odieresis
ENCODING 246
SWIDTH 602 0
DWIDTH 7 0
BBX 5 10 1 0
BITMAP
50
50
00
70
88
88
88
88
88
70
ENDCHAR
STARTCHAR divide
ENCODING 247
SWIDTH 602 0
DWIDTH 7 0
BBX 7 7 0 1
BITMAP
10
10
00
FE
00
10
10
ENDCHAR
STARTCHAR oslash
ENCODING 248
SWIDTH 602 0
DWIDTH 7 0
BBX 7 7 0 0
BITMAP
3A
44
4C
54
64
44
B8
ENDCHAR
STARTCHAR ugrave
ENCODING 249
SWIDTH 602 0
DWIDTH 7 0
BBX 5 10 1 0
BITMAP
40
20
00
88
88
88
88
88
98
68
ENDCHAR
STARTCHAR uacute
ENCODING 250
SWIDTH 602 0
DWIDTH 7 0
BBX 5 10 1 0
BITMAP
10
20
00
88
88
88
88
88
98
68
ENDCHAR
STARTCHAR ucircumflex
ENCODING 251
SWIDTH 602 0
DWIDTH 7 0
BBX 5 10 1 0
BITMAP
20
50
00
88
88
88
88
88
98
68
ENDCHAR
STARTCHAR udieresis
ENCODING 252
SWIDTH 602 0
DWIDTH 7 0
BBX 5 10 1 0
BITMAP
50
50
00
88
88
88
88
88
98
68
ENDCHAR
STARTCHAR yacute
ENCODING 253
SWIDTH 602 0
DWIDTH 7 0
BBX 5 12 1 -2
BITMAP
10
20
00
88
88
88
50
50
20
20
40
C0
ENDCHAR
STARTCHAR thorn
ENCODING 254
SWIDTH 602 0
DWIDTH 7 0
BBX 5 11 1 -2
BITMAP
80
80
B0
C8
88
88
88
88
F0
80
80
ENDCHAR
STARTCHAR ydieresis
ENCODING 255
SWIDTH 602 0
DWIDTH 7 0
BBX 5 12 1 -2
BITMAP
50
50
00
88
88
88
50
50
20
20
40
C0
ENDCHAR
STARTCHAR uni0400
ENCODING 1024
SWIDTH 602 0
DWIDTH 7 0
BBX 5 11 1 0
BITMAP
40
20
00
F8
80
80
F0
80
80
80
F8
ENDCHAR
STARTCHAR afii10023
ENCODING 1025
SWIDTH 602 0
DWIDTH 7 0
BBX 5 11 1 0
BITMAP
50
50
00
F8
80
80
F0
80
80
80
F8
ENDCHAR
STARTCHAR afii10051
ENCODING 1026
SWIDTH 602 0
DWIDTH 7 0
BBX 7 9 0 0
BITMAP
FE
20
20
3C
22
22
22
22
2C
ENDCHAR
STARTCHAR afii10052
ENCODING 1027
SWIDTH 602 0
DWIDTH 7 0
BBX 5 11 1 0
BITMAP
10
20
00
F8
80
80
80
80
80
80
80
ENDCHAR
STARTCHAR afii10053
ENCODING 1028
SWIDTH 602 0
DWIDTH 7 0
BBX 5 9 1 0
BITMAP
38
48
80
80
F0
80
80
40
38
ENDCHAR
STARTCHAR afii10054
ENCODING 1029
SWIDTH 602 0
DWIDTH 7 0
BBX 5 9 1 0
BITMAP
78
80
80
C0
70
18
08
08
F0
ENDCHAR
STARTCHAR afii10055
ENCODING 1030
SWIDTH 602 0
DWIDTH 7 0
BBX 5 9 1 0
BITMAP
F8
20
20
20
20
20
20
20
F8
ENDCHAR
STARTCHAR afii10056
ENCODING 1031
SWIDTH 602 0
DWIDTH 7 0
BBX 5 11 1 0
BITMAP
50
50
00
F8
20
20
20
20
20
20
F8
ENDCHAR
STARTCHAR afii10057
ENCODING 1032
SWIDTH 602 0
DWIDTH 7 0
BBX 6 9 0 0
BITMAP
7C
10
10
10
10
10
10
10
E0
ENDCHAR
STARTCHAR afii10058
ENCODING 1033
SWIDTH 602 0
DWIDTH 7 0
BBX 7 9 0 0
BITMAP
30
50
50
5C
52
52
52
52
9C
ENDCHAR
STARTCHAR afii10059
ENCODING 1034
SWIDTH 602 0
DWIDTH 7 0
BBX 7 9 0 0
BITMAP
90
90
90
FC
92
92
92
92
9C
ENDCHAR
STARTCHAR afii10060
ENCODING 1035
SWIDTH 602 0
DWIDTH 7 0
BBX 7 9 0 0
BITMAP
FE
20
20
3C
22
22
22
22
22
ENDCHAR
STARTCHAR afii10061
ENCODING 1036
SWIDTH 602 0
DWIDTH 7 0
BBX 6 11 1 0
BITMAP
10
20
84
88
90
A0
E0
90
88
84
84
ENDCHAR
STARTCHAR uni040D
ENCODING 1037
SWIDTH 602 0
DWIDTH 7 0
BBX 5 11 1 0
BITMAP
40
20
00
88
98
98
A8
A8
C8
C8
88
ENDCHAR
STARTCHAR afii10062
ENCODING 1038
SWIDTH 602 0
DWIDTH 7 0
BBX 5 11 1 0
BITMAP
88
70
00
88
88
50
50
20
20
40
80
ENDCHAR
STARTCHAR afii10145
ENCODING 1039
SWIDTH 602 0
DWIDTH 7 0
BBX 5 11 1 -2
BITMAP
88
88
88
88
88
88
88
88
F8
20
20
ENDCHAR
STARTCHAR afii10017
ENCODING 1040
SWIDTH 602 0
DWIDTH 7 0
BBX 6 9 1 0
BITMAP
30
30
48
48
48
FC
84
84
84
ENDCHAR
STARTCHAR afii10018
ENCODING 1041
SWIDTH 602 0
DWIDTH 7 0
BBX 5 9 1 0
BITMAP
F8
80
80
80
F0
88
88
88
F0
ENDCHAR
STARTCHAR afii10019
ENCODING 1042
SWIDTH 602 0
DWIDTH 7 0
BBX 5 9 1 0
BITMAP
F0
88
88
88
F0
88
88
88
F0
ENDCHAR
STARTCHAR afii10020
ENCODING 1043
SWIDTH 602 0
DWIDTH 7 0
BBX 5 9 1 0
BITMAP
F8
80
80
80
80
80
80
80
80
ENDCHAR
STARTCHAR afii10021
ENCODING 1044
SWIDTH 602 0
DWIDTH 7 0
BBX 6 10 1 -1
BITMAP
78
48
48
48
48
48
48
48
FC
84
ENDCHAR
STARTCHAR afii10022
ENCODING 1045
SWIDTH 602 0
DWIDTH 7 0
BBX 5 9 1 0
BITMAP
F8
80
80
80
F0
80
80
80
F8
ENDCHAR
STARTCHAR afii10024
ENCODING 1046
SWIDTH 602 0
DWIDTH 7 0
BBX 5 9 1 0
BITMAP
A8
A8
A8
70
20
70
A8
A8
A8
ENDCHAR
STARTCHAR afii10025
ENCODING 1047
SWIDTH 602 0
DWIDTH 7 0
BBX 5 9 1 0
BITMAP
F0
88
08
08
70
08
08
88
70
ENDCHAR
STARTCHAR afii10026
ENCODING 1048
SWIDTH 602 0
DWIDTH 7 0
BBX 5 9 1 0
BITMAP
88
98
98
A8
A8
C8
C8
88
88
ENDCHAR
STARTCHAR afii10027
ENCODING 1049
SWIDTH 602 0
DWIDTH 7 0
BBX 5 11 1 0
BITMAP
88
70
00
88
98
98
A8
A8
C8
C8
88
ENDCHAR
STARTCHAR afii10028
ENCODING 1050
SWIDTH 602 0
DWIDTH 7 0
BBX 6 9 1 0
BITMAP
84
88
90
A0
E0
90
88
84
84
ENDCHAR
STARTCHAR afii10029
ENCODING 1051
SWIDTH 602 0
DWIDTH 7 0
BBX 6 9 1 0
BITMAP
7C
44
44
44
44
44
44
44
84
ENDCHAR
STARTCHAR afii10030
ENCODING 1052
SWIDTH 602 0
DWIDTH 7 0
BBX 6 9 1 0
BITMAP
84
CC
CC
B4
B4
B4
84
84
84
ENDCHAR
STARTCHAR afii10031
ENCODING 1053
SWIDTH 602 0
DWIDTH 7 0
BBX 5 9 1 0
BITMAP
88
88
88
88
F8
88
88
88
88
ENDCHAR
STARTCHAR afii10032
ENCODING 1054
SWIDTH 602 0
DWIDTH 7 0
BBX 6 9 1 0
BITMAP
30
48
84
84
84
84
84
48
30
ENDCHAR
STARTCHAR afii10033
ENCODING 1055
SWIDTH 602 0
DWIDTH 7 0
BBX 5 9 1 0
BITMAP
F8
88
88
88
88
88
88
88
88
ENDCHAR
STARTCHAR afii10034
ENCODING 1056
SWIDTH 602 0
DWIDTH 7 0
BBX 5 9 1 0
BITMAP
F0
88
88
88
88
F0
80
80
80
ENDCHAR
STARTCHAR afii10035
ENCODING 1057
SWIDTH 602 0
DWIDTH 7 0
BBX 5 9 1 0
BITMAP
38
48
80
80
80
80
80
40
38
ENDCHAR
STARTCHAR afii10036
ENCODING 1058
SWIDTH 602 0
DWIDTH 7 0
BBX 7 9 0 0
BITMAP
FE
10
10
10
10
10
10
10
10
ENDCHAR
STARTCHAR afii10037
ENCODING 1059
SWIDTH 602 0
DWIDTH 7 0
BBX 5 9 1 0
BITMAP
88
88
88
50
50
20
20
40
80
ENDCHAR
STARTCHAR afii10038
ENCODING 1060
SWIDTH 602 0
DWIDTH 7 0
BBX 5 9 1 0
BITMAP
20
70
A8
A8
A8
A8
A8
70
20
ENDCHAR
STARTCHAR afii10039
ENCODING 1061
SWIDTH 602 0
DWIDTH 7 0
BBX 5 9 1 0
BITMAP
88
88
50
50
20
50
50
88
88
ENDCHAR
STARTCHAR afii10040
ENCODING 1062
SWIDTH 602 0
DWIDTH 7 0
BBX 6 10 1 -1
BITMAP
88
88
88
88
88
88
88
88
FC
04
ENDCHAR
STARTCHAR afii10041
ENCODING 1063
SWIDTH 602 0
DWIDTH 7 0
BBX 5 9 1 0
BITMAP
88
88
88
88
78
08
08
08
08
ENDCHAR
STARTCHAR afii10042
ENCODING 1064
SWIDTH 602 0
DWIDTH 7 0
BBX 5 9 1 0
BITMAP
A8
A8
A8
A8
A8
A8
A8
A8
F8
ENDCHAR
STARTCHAR afii10043
ENCODING 1065
SWIDTH 602 0
DWIDTH 7 0
BBX 6 10 1 -1
BITMAP
A8
A8
A8
A8
A8
A8
A8
A8
FC
04
ENDCHAR
STARTCHAR afii10044
ENCODING 1066
SWIDTH 602 0
DWIDTH 7 0
BBX 6 9 0 0
BITMAP
E0
20
20
38
24
24
24
24
38
ENDCHAR
STARTCHAR afii10045
ENCODING 1067
SWIDTH 602 0
DWIDTH 7 0
BBX 6 9 1 0
BITMAP
84
84
84
E4
94
94
94
94
E4
ENDCHAR
STARTCHAR afii10046
ENCODING 1068
SWIDTH 602 0
DWIDTH 7 0
BBX 5 9 1 0
BITMAP
80
80
80
F0
88
88
88
88
F0
ENDCHAR
STARTCHAR afii10047
ENCODING 1069
SWIDTH 602 0
DWIDTH 7 0
BBX 5 9 1 0
BITMAP
E0
90
08
08
78
08
08
10
E0
ENDCHAR
STARTCHAR afii10048
ENCODING 1070
SWIDTH 602 0
DWIDTH 7 0
BBX 6 9 1 0
BITMAP
98
A4
A4
A4
E4
A4
A4
A4
98
ENDCHAR
STARTCHAR afii10049
ENCODING 1071
SWIDTH 602 0
DWIDTH 7 0
BBX 5 9 1 0
BITMAP
78
88
88
88
78
48
88
88
88
ENDCHAR
STARTCHAR afii10065
ENCODING 1072
SWIDTH 602 0
DWIDTH 7 0
BBX 6 7 1 0
BITMAP
70
88
08
78
88
88
74
ENDCHAR
STARTCHAR afii10066
ENCODING 1073
SWIDTH 602 0
DWIDTH 7 0
BBX 5 10 1 0
BITMAP
38
40
80
B0
C8
88
88
88
88
70
ENDCHAR
STARTCHAR afii10067
ENCODING 1074
SWIDTH 602 0
DWIDTH 7 0
BBX 5 7 1 0
BITMAP
F0
88
88
F0
88
88
F0
ENDCHAR
STARTCHAR afii10068
ENCODING 1075
SWIDTH 602 0
DWIDTH 7 0
BBX 5 7 1 0
BITMAP
F8
80
80
80
80
80
80
ENDCHAR
STARTCHAR afii10069
ENCODING 1076
SWIDTH 602 0
DWIDTH 7 0
BBX 6 8 1 -1
BITMAP
78
48
48
48
48
48
FC
84
ENDCHAR
STARTCHAR afii10070
ENCODING 1077
SWIDTH 602 0
DWIDTH 7 0
BBX 5 7 1 0
BITMAP
70
88
88
F8
80
88
70
ENDCHAR
STARTCHAR afii10072
ENCODING 1078
SWIDTH 602 0
DWIDTH 7 0
BBX 5 7 1 0
BITMAP
A8
A8
70
20
70
A8
A8
ENDCHAR
STARTCHAR afii10073
ENCODING 1079
SWIDTH 602 0
DWIDTH 7 0
BBX 5 7 1 0
BITMAP
F0
08
08
70
08
08
F0
ENDCHAR
STARTCHAR afii10074
ENCODING 1080
SWIDTH 602 0
DWIDTH 7 0
BBX 5 7 1 0
BITMAP
88
88
98
A8
C8
88
88
ENDCHAR
STARTCHAR afii10075
ENCODING 1081
SWIDTH 602 0
DWIDTH 7 0
BBX 5 10 1 0
BITMAP
50
20
00
88
88
98
A8
C8
88
88
ENDCHAR
STARTCHAR afii10076
ENCODING 1082
SWIDTH 602 0
DWIDTH 7 0
BBX 5 7 1 0
BITMAP
88
90
A0
E0
90
88
88
ENDCHAR
STARTCHAR afii10077
ENCODING 1083
SWIDTH 602 0
DWIDTH 7 0
BBX 5 7 1 0
BITMAP
78
48
48
48
48
48
88
ENDCHAR
STARTCHAR afii10078
ENCODING 1084
SWIDTH 602 0
DWIDTH 7 0
BBX 6 7 1 0
BITMAP
84
CC
CC
B4
B4
84
84
ENDCHAR
STARTCHAR afii10079
ENCODING 1085
SWIDTH 602 0
DWIDTH 7 0
BBX 5 7 1 0
BITMAP
88
88
88
F8
88
88
88
ENDCHAR
STARTCHAR afii10080
ENCODING 1086
SWIDTH 602 0
DWIDTH 7 0
BBX 5 7 1 0
BITMAP
70
88
88
88
88
88
70
ENDCHAR
STARTCHAR afii10081
ENCODING 1087
SWIDTH 602 0
DWIDTH 7 0
BBX 5 7 1 0
BITMAP
F8
88
88
88
88
88
88
ENDCHAR
STARTCHAR afii10082
ENCODING 1088
SWIDTH 602 0
DWIDTH 7 0
BBX 5 9 1 -2
BITMAP
B0
C8
88
88
88
88
F0
80
80
ENDCHAR
STARTCHAR afii10083
ENCODING 1089
SWIDTH 602 0
DWIDTH 7 0
BBX 5 7 1 0
BITMAP
38
40
80
80
80
40
38
ENDCHAR
STARTCHAR afii10084
ENCODING 1090
SWIDTH 602 0
DWIDTH 7 0
BBX 5 7 1 0
BITMAP
F8
20
20
20
20
20
20
ENDCHAR
STARTCHAR afii10085
ENCODING 1091
SWIDTH 602 0
DWIDTH 7 0
BBX 5 9 1 -2
BITMAP
88
88
88
50
50
20
20
40
C0
ENDCHAR
STARTCHAR afii10086
ENCODING 1092
SWIDTH 602 0
DWIDTH 7 0
BBX 5 12 1 -2
BITMAP
20
20
20
70
A8
A8
A8
A8
A8
70
20
20
ENDCHAR
STARTCHAR afii10087
ENCODING 1093
SWIDTH 602 0
DWIDTH 7 0
BBX 5 7 1 0
BITMAP
88
88
50
20
50
88
88
ENDCHAR
STARTCHAR afii10088
ENCODING 1094
SWIDTH 602 0
DWIDTH 7 0
BBX 5 8 1 -1
BITMAP
90
90
90
90
90
90
F8
08
ENDCHAR
STARTCHAR afii10089
ENCODING 1095
SWIDTH 602 0
DWIDTH 7 0
BBX 5 7 1 0
BITMAP
88
88
88
78
08
08
08
ENDCHAR
STARTCHAR afii10090
ENCODING 1096
SWIDTH 602 0
DWIDTH 7 0
BBX 5 7 1 0
BITMAP
A8
A8
A8
A8
A8
A8
F8
ENDCHAR
STARTCHAR afii10091
ENCODING 1097
SWIDTH 602 0
DWIDTH 7 0
BBX 6 8 1 -1
BITMAP
A8
A8
A8
A8
A8
A8
FC
04
ENDCHAR
STARTCHAR afii10092
ENCODING 1098
SWIDTH 602 0
DWIDTH 7 0
BBX 6 7 0 0
BITMAP
E0
20
20
38
24
24
38
ENDCHAR
STARTCHAR afii10093
ENCODING 1099
SWIDTH 602 0
DWIDTH 7 0
BBX 6 7 1 0
BITMAP
84
84
84
E4
94
94
E4
ENDCHAR
STARTCHAR afii10094
ENCODING 1100
SWIDTH 602 0
DWIDTH 7 0
BBX 5 7 1 0
BITMAP
80
80
80
F0
88
88
F0
ENDCHAR
STARTCHAR afii10095
ENCODING 1101
SWIDTH 602 0
DWIDTH 7 0
BBX 5 7 1 0
BITMAP
E0
10
08
78
08
10
E0
ENDCHAR
STARTCHAR afii10096
ENCODING 1102
SWIDTH 602 0
DWIDTH 7 0
BBX 6 7 1 0
BITMAP
98
A4
A4
E4
A4
A4
98
ENDCHAR
STARTCHAR afii10097
ENCODING 1103
SWIDTH 602 0
DWIDTH 7 0
BBX 5 7 1 0
BITMAP
78
88
88
78
48
88
88
ENDCHAR
STARTCHAR uni0450
ENCODING 1104
SWIDTH 602 0
DWIDTH 7 0
BBX 5 10 1 0
BITMAP
20
10
00
70
88
88
F8
80
88
70
ENDCHAR
STARTCHAR afii10071
ENCODING 1105
SWIDTH 602 0
DWIDTH 7 0
BBX 5 10 1 0
BITMAP
50
50
00
70
88
88
F8
80
88
70
ENDCHAR
STARTCHAR afii10099
ENCODING 1106
SWIDTH 602 0
DWIDTH 7 0
BBX 6 12 0 -2
BITMAP
40
F0
40
58
64
44
44
44
44
44
04
18
ENDCHAR
STARTCHAR afii10100
ENCODING 1107
SWIDTH 602 0
DWIDTH 7 0
BBX 5 10 1 0
BITMAP
10
20
00
F8
80
80
80
80
80
80
ENDCHAR
STARTCHAR afii10101
ENCODING 1108
SWIDTH 602 0
DWIDTH 7 0
BBX 5 7 1 0
BITMAP
38
40
80
F0
80
40
38
ENDCHAR
STARTCHAR afii10102
ENCODING 1109
SWIDTH 602 0
DWIDTH 7 0
BBX 5 7 1 0
BITMAP
78
80
80
70
08
08
F0
ENDCHAR
STARTCHAR afii10103
ENCODING 1110
SWIDTH 602 0
DWIDTH 7 0
BBX 3 10 1 0
BITMAP
20
20
00
E0
20
20
20
20
20
20
ENDCHAR
STARTCHAR afii10104
ENCODING 1111
SWIDTH 602 0
DWIDTH 7 0
BBX 4 10 1 0
BITMAP
50
50
00
E0
20
20
20
20
20
20
ENDCHAR
STARTCHAR afii10105
ENCODING 1112
SWIDTH 602 0
DWIDTH 7 0
BBX 4 12 1 -2
BITMAP
10
10
00
F0
10
10
10
10
10
10
10
E0
ENDCHAR
STARTCHAR afii10106
ENCODING 1113
SWIDTH 602 0
DWIDTH 7 0
BBX 7 7 0 0
BITMAP
30
50
50
5C
52
52
9C
ENDCHAR
STARTCHAR afii10107
ENCODING 1114
SWIDTH 602 0
DWIDTH 7 0
BBX 7 7 0 0
BITMAP
90
90
90
FC
92
92
9C
ENDCHAR
STARTCHAR afii10108
ENCODING 1115
SWIDTH 602 0
DWIDTH 7 0
BBX 6 10 0 0
BITMAP
40
F0
40
58
64
44
44
44
44
44
ENDCHAR
STARTCHAR afii10109
ENCODING 1116
SWIDTH 602 0
DWIDTH 7 0
BBX 5 10 1 0
BITMAP
10
20
00
88
90
A0
E0
90
88
88
ENDCHAR
STARTCHAR uni045D
ENCODING 1117
SWIDTH 602 0
DWIDTH 7 0
BBX 5 10 1 0
BITMAP
40
20
00
88
88
98
A8
C8
88
88
ENDCHAR
STARTCHAR afii10110
ENCODING 1118
SWIDTH 602 0
DWIDTH 7 0
BBX 5 12 1 -2
BITMAP
50
20
00
88
88
88
50
50
20
20
40
C0
ENDCHAR
STARTCHAR afii10193
ENCODING 1119
SWIDTH 602 0
DWIDTH 7 0
BBX 5 9 1 -2
BITMAP
88
88
88
88
88
88
F8
20
20
ENDCHAR
STARTCHAR uni0460
ENCODING 1120
SWIDTH 602 0
DWIDTH 7 0
BBX 7 9 0 0
BITMAP
44
82
82
92
92
92
92
92
6C
ENDCHAR
STARTCHAR uni0461
ENCODING 1121
SWIDTH 602 0
DWIDTH 7 0
BBX 7 7 0 0
BITMAP
44
82
92
92
92
92
6C
ENDCHAR
STARTCHAR afii10146
ENCODING 1122
SWIDTH 602 0
DWIDTH 7 0
BBX 6 9 0 0
BITMAP
20
F8
20
38
24
24
24
24
38
ENDCHAR
STARTCHAR afii10194
ENCODING 1123
SWIDTH 602 0
DWIDTH 7 0
BBX 6 10 0 0
BITMAP
20
20
20
F8
20
20
38
24
24
38
ENDCHAR
STARTCHAR uni0464
ENCODING 1124
SWIDTH 602 0
DWIDTH 7 0
BBX 7 9 0 0
BITMAP
8E
92
A0
A0
FC
A0
A0
90
8E
ENDCHAR
STARTCHAR uni0465
ENCODING 1125
SWIDTH 602 0
DWIDTH 7 0
BBX 7 7 0 0
BITMAP
8E
90
A0
FC
A0
90
8E
ENDCHAR
STARTCHAR uni0466
ENCODING 1126
SWIDTH 602 0
DWIDTH 7 0
BBX 7 9 0 0
BITMAP
10
10
28
28
44
6C
92
92
92
ENDCHAR
STARTCHAR uni0467
ENCODING 1127
SWIDTH 602 0
DWIDTH 7 0
BBX 7 7 0 0
BITMAP
10
28
28
44
6C
92
92
ENDCHAR
STARTCHAR uni0468
ENCODING 1128
SWIDTH 602 0
DWIDTH 7 0
BBX 7 9 0 0
BITMAP
88
88
94
94
F4
AA
AA
AA
AA
ENDCHAR
STARTCHAR uni0469
ENCODING 1129
SWIDTH 602 0
DWIDTH 7 0
BBX 7 7 0 0
BITMAP
88
88
94
F4
AA
AA
AA
ENDCHAR
STARTCHAR uni046A
ENCODING 1130
SWIDTH 602 0
DWIDTH 7 0
BBX 5 9 1 0
BITMAP
F8
88
50
50
20
70
A8
A8
A8
ENDCHAR
STARTCHAR uni046B
ENCODING 1131
SWIDTH 602 0
DWIDTH 7 0
BBX 5 7 1 0
BITMAP
F8
88
50
20
70
A8
A8
ENDCHAR
STARTCHAR uni046C
ENCODING 1132
SWIDTH 602 0
DWIDTH 7 0
BBX 7 9 0 0
BITMAP
BE
A2
94
94
F8
9C
AA
AA
AA
ENDCHAR
STARTCHAR uni046D
ENCODING 1133
SWIDTH 602 0
DWIDTH 7 0
BBX 7 7 0 0
BITMAP
BE
A2
94
F8
9C
AA
AA
ENDCHAR
STARTCHAR uni046E
ENCODING 1134
SWIDTH 602 0
DWIDTH 7 0
BBX 5 13 1 -2
BITMAP
50
20
00
70
88
08
70
08
08
08
70
80
70
ENDCHAR
STARTCHAR uni046F
ENCODING 1135
SWIDTH 602 0
DWIDTH 7 0
BBX 5 12 1 -2
BITMAP
50
20
00
F0
08
08
70
08
08
70
80
70
ENDCHAR
STARTCHAR uni0470
ENCODING 1136
SWIDTH 602 0
DWIDTH 7 0
BBX 7 9 0 0
BITMAP
92
54
54
54
54
38
10
10
10
ENDCHAR
STARTCHAR uni0471
ENCODING 1137
SWIDTH 602 0
DWIDTH 7 0
BBX 6 10 0 -2
BITMAP
10
94
54
54
54
54
54
38
10
10
ENDCHAR
STARTCHAR afii10147
ENCODING 1138
SWIDTH 602 0
DWIDTH 7 0
BBX 6 9 1 0
BITMAP
30
48
84
84
FC
84
84
48
30
ENDCHAR
STARTCHAR afii10195
ENCODING 1139
SWIDTH 602 0
DWIDTH 7 0
BBX 5 7 1 0
BITMAP
70
88
88
F8
88
88
70
ENDCHAR
STARTCHAR afii10148
ENCODING 1140
SWIDTH 602 0
DWIDTH 7 0
BBX 6 9 1 0
BITMAP
84
88
88
88
50
50
50
20
20
ENDCHAR
STARTCHAR afii10196
ENCODING 1141
SWIDTH 602 0
DWIDTH 7 0
BBX 6 7 1 0
BITMAP
84
88
88
50
50
20
20
ENDCHAR
STARTCHAR uni0476
ENCODING 1142
SWIDTH 602 0
DWIDTH 7 0
BBX 6 11 1 0
BITMAP
90
48
00
84
88
88
50
50
50
20
20
ENDCHAR
STARTCHAR uni0477
ENCODING 1143
SWIDTH 602 0
DWIDTH 7 0
BBX 6 10 1 0
BITMAP
90
48
00
84
88
88
50
50
20
20
ENDCHAR
STARTCHAR uni0478
ENCODING 1144
SWIDTH 602 0
DWIDTH 7 0
BBX 7 11 0 -2
BITMAP
60
A0
9A
9A
9A
9A
94
54
64
08
08
ENDCHAR
STARTCHAR uni0479
ENCODING 1145
SWIDTH 602 0
DWIDTH 7 0
BBX 7 9 0 -2
BITMAP
4A
AA
9A
9A
94
54
24
08
08
ENDCHAR
STARTCHAR uni047A
ENCODING 1146
SWIDTH 602 0
DWIDTH 7 0
BBX 7 11 0 -1
BITMAP
10
38
54
82
82
82
82
82
54
38
10
ENDCHAR
STARTCHAR uni047B
ENCODING 1147
SWIDTH 602 0
DWIDTH 7 0
BBX 5 9 1 -1
BITMAP
20
70
A8
88
88
88
A8
70
20
ENDCHAR
STARTCHAR uni047C
ENCODING 1148
SWIDTH 602 0
DWIDTH 7 0
BBX 7 11 0 0
BITMAP
04
7C
40
44
82
82
92
92
92
92
6C
ENDCHAR
STARTCHAR uni047D
ENCODING 1149
SWIDTH 602 0
DWIDTH 7 0
BBX 7 11 0 0
BITMAP
04
7C
40
00
44
82
92
92
92
92
6C
ENDCHAR
STARTCHAR uni047E
ENCODING 1150
SWIDTH 602 0
DWIDTH 7 0
BBX 7 11 0 0
BITMAP
7C
54
00
44
82
82
92
92
92
92
6C
ENDCHAR
STARTCHAR uni047F
ENCODING 1151
SWIDTH 602 0
DWIDTH 7 0
BBX 7 10 0 0
BITMAP
7C
54
00
44
82
92
92
92
92
6C
ENDCHAR
STARTCHAR uni0480
ENCODING 1152
SWIDTH 602 0
DWIDTH 7 0
BBX 5 10 1 -1
BITMAP
38
48
80
80
80
80
40
30
10
10
ENDCHAR
STARTCHAR uni0481
ENCODING 1153
SWIDTH 602 0
DWIDTH 7 0
BBX 5 8 1 -1
BITMAP
38
40
80
80
40
30
10
10
ENDCHAR
STARTCHAR uni0482
ENCODING 1154
SWIDTH 602 0
DWIDTH 7 0
BBX 7 9 0 0
BITMAP
04
38
0E
10
10
10
E0
38
40
ENDCHAR
STARTCHAR uni0483
ENCODING 1155
SWIDTH 602 0
DWIDTH 7 0
BBX 4 3 2 7
BITMAP
10
F0
80
ENDCHAR
STARTCHAR uni0484
ENCODING 1156
SWIDTH 602 0
DWIDTH 7 0
BBX 4 2 2 8
BITMAP
60
90
ENDCHAR
STARTCHAR uni0485
ENCODING 1157
SWIDTH 602 0
DWIDTH 7 0
BBX 4 3 2 7
BITMAP
80
F0
80
ENDCHAR
STARTCHAR uni0486
ENCODING 1158
SWIDTH 602 0
DWIDTH 7 0
BBX 4 3 2 7
BITMAP
10
F0
10
ENDCHAR
STARTCHAR uni0488
ENCODING 1160
SWIDTH 602 0
DWIDTH 7 0
BBX 7 9 0 0
BITMAP
38
00
6C
00
C6
00
6C
00
38
ENDCHAR
STARTCHAR uni0489
ENCODING 1161
SWIDTH 602 0
DWIDTH 7 0
BBX 7 10 0 -1
BITMAP
08
50
46
00
84
42
00
C4
14
20
ENDCHAR
STARTCHAR uni048C
ENCODING 1164
SWIDTH 602 0
DWIDTH 7 0
BBX 6 10 0 0
BITMAP
40
E0
40
40
78
44
44
44
44
78
ENDCHAR
STARTCHAR uni048D
ENCODING 1165
SWIDTH 602 0
DWIDTH 7 0
BBX 6 8 0 0
BITMAP
40
E0
40
40
78
44
44
78
ENDCHAR
STARTCHAR uni048E
ENCODING 1166
SWIDTH 602 0
DWIDTH 7 0
BBX 5 9 1 0
BITMAP
F0
88
88
A8
90
E8
80
80
80
ENDCHAR
STARTCHAR uni048F
ENCODING 1167
SWIDTH 602 0
DWIDTH 7 0
BBX 5 9 1 -2
BITMAP
B0
C8
88
88
88
A8
F0
88
80
ENDCHAR
STARTCHAR afii10050
ENCODING 1168
SWIDTH 602 0
DWIDTH 7 0
BBX 5 10 1 0
BITMAP
08
F8
80
80
80
80
80
80
80
80
ENDCHAR
STARTCHAR afii10098
ENCODING 1169
SWIDTH 602 0
DWIDTH 7 0
BBX 5 8 1 0
BITMAP
08
F8
80
80
80
80
80
80
ENDCHAR
STARTCHAR uni0492
ENCODING 1170
SWIDTH 602 0
DWIDTH 7 0
BBX 6 9 0 0
BITMAP
7C
40
40
40
F0
40
40
40
40
ENDCHAR
STARTCHAR uni0493
ENCODING 1171
SWIDTH 602 0
DWIDTH 7 0
BBX 6 7 0 0
BITMAP
7C
40
40
F0
40
40
40
ENDCHAR
STARTCHAR uni0494
ENCODING 1172
SWIDTH 602 0
DWIDTH 7 0
BBX 5 11 1 -2
BITMAP
F8
80
80
80
F0
88
88
88
88
08
30
ENDCHAR
STARTCHAR uni0495
ENCODING 1173
SWIDTH 602 0
DWIDTH 7 0
BBX 5 9 1 -2
BITMAP
F8
80
80
F0
88
88
88
08
30
ENDCHAR
STARTCHAR uni0496
ENCODING 1174
SWIDTH 602 0
DWIDTH 7 0
BBX 6 10 1 -1
BITMAP
A8
A8
A8
70
20
70
A8
A8
AC
04
ENDCHAR
STARTCHAR uni0497
ENCODING 1175
SWIDTH 602 0
DWIDTH 7 0
BBX 6 8 1 -1
BITMAP
A8
A8
70
20
70
A8
AC
04
ENDCHAR
STARTCHAR uni0498
ENCODING 1176
SWIDTH 602 0
DWIDTH 7 0
BBX 5 11 1 -2
BITMAP
F0
88
08
08
70
08
08
88
70
10
60
ENDCHAR
STARTCHAR uni0499
ENCODING 1177
SWIDTH 602 0
DWIDTH 7 0
BBX 5 9 1 -2
BITMAP
F0
08
08
70
08
08
F0
10
60
ENDCHAR
STARTCHAR uni049A
ENCODING 1178
SWIDTH 602 0
DWIDTH 7 0
BBX 6 11 1 -2
BITMAP
84
88
90
A0
E0
90
88
84
84
04
04
ENDCHAR
STARTCHAR uni049B
ENCODING 1179
SWIDTH 602 0
DWIDTH 7 0
BBX 6 8 1 -1
BITMAP
88
90
A0
E0
90
88
8C
04
ENDCHAR
STARTCHAR uni049C
ENCODING 1180
SWIDTH 602 0
DWIDTH 7 0
BBX 6 9 1 0
BITMAP
84
84
A8
A8
F0
A8
A8
84
84
ENDCHAR
STARTCHAR uni049D
ENCODING 1181
SWIDTH 602 0
DWIDTH 7 0
BBX 6 7 1 0
BITMAP
84
A4
A8
F0
A8
A4
84
ENDCHAR
STARTCHAR uni049E
ENCODING 1182
SWIDTH 602 0
DWIDTH 7 0
BBX 7 9 0 0
BITMAP
42
F4
48
50
70
48
44
42
42
ENDCHAR
STARTCHAR uni049F
ENCODING 1183
SWIDTH 602 0
DWIDTH 7 0
BBX 7 10 0 0
BITMAP
40
40
F0
44
48
50
70
48
44
42
ENDCHAR
STARTCHAR uni04A0
ENCODING 1184
SWIDTH 602 0
DWIDTH 7 0
BBX 7 9 0 0
BITMAP
E2
24
28
30
30
28
24
22
22
ENDCHAR
STARTCHAR uni04A1
ENCODING 1185
SWIDTH 602 0
DWIDTH 7 0
BBX 7 7 0 0
BITMAP
E2
24
28
38
24
22
22
ENDCHAR
STARTCHAR uni04A2
ENCODING 1186
SWIDTH 602 0
DWIDTH 7 0
BBX 6 10 1 -1
BITMAP
88
88
88
88
F8
88
88
88
8C
04
ENDCHAR
STARTCHAR uni04A3
ENCODING 1187
SWIDTH 602 0
DWIDTH 7 0
BBX 6 8 1 -1
BITMAP
88
88
88
F8
88
88
8C
04
ENDCHAR
STARTCHAR uni04A4
ENCODING 1188
SWIDTH 602 0
DWIDTH 7 0
BBX 6 9 1 0
BITMAP
9C
90
90
90
F0
90
90
90
90
ENDCHAR
STARTCHAR uni04A5
ENCODING 1189
SWIDTH 602 0
DWIDTH 7 0
BBX 6 7 1 0
BITMAP
9C
90
90
F0
90
90
90
ENDCHAR
STARTCHAR uni04A6
ENCODING 1190
SWIDTH 602 0
DWIDTH 7 0
BBX 6 11 1 -2
BITMAP
F0
90
90
90
98
94
94
94
94
04
08
ENDCHAR
STARTCHAR uni04A7
ENCODING 1191
SWIDTH 602 0
DWIDTH 7 0
BBX 6 9 1 -2
BITMAP
F0
90
90
98
94
94
94
04
08
ENDCHAR
STARTCHAR uni04A8
ENCODING 1192
SWIDTH 602 0
DWIDTH 7 0
BBX 6 10 1 -1
BITMAP
30
48
94
94
94
94
94
48
38
04
ENDCHAR
STARTCHAR uni04A9
ENCODING 1193
SWIDTH 602 0
DWIDTH 7 0
BBX 5 8 1 -1
BITMAP
70
88
98
A8
A8
A8
70
18
ENDCHAR
STARTCHAR uni04AA
ENCODING 1194
SWIDTH 602 0
DWIDTH 7 0
BBX 5 11 1 -2
BITMAP
38
48
80
80
80
80
80
40
38
10
60
ENDCHAR
STARTCHAR uni04AB
ENCODING 1195
SWIDTH 602 0
DWIDTH 7 0
BBX 5 9 1 -2
BITMAP
38
40
80
80
80
40
38
10
60
ENDCHAR
STARTCHAR uni04AC
ENCODING 1196
SWIDTH 602 0
DWIDTH 7 0
BBX 7 10 0 -1
BITMAP
FE
10
10
10
10
10
10
10
18
08
ENDCHAR
STARTCHAR uni04AD
ENCODING 1197
SWIDTH 602 0
DWIDTH 7 0
BBX 5 8 1 -1
BITMAP
F8
20
20
20
20
20
30
10
ENDCHAR
STARTCHAR uni04AE
ENCODING 1198
SWIDTH 602 0
DWIDTH 7 0
BBX 5 9 1 0
BITMAP
88
88
88
50
50
20
20
20
20
ENDCHAR
STARTCHAR uni04AF
ENCODING 1199
SWIDTH 602 0
DWIDTH 7 0
BBX 5 9 1 -2
BITMAP
88
88
88
50
50
20
20
20
20
ENDCHAR
STARTCHAR uni04B0
ENCODING 1200
SWIDTH 602 0
DWIDTH 7 0
BBX 5 9 1 0
BITMAP
88
88
88
50
50
20
F8
20
20
ENDCHAR
STARTCHAR uni04B1
ENCODING 1201
SWIDTH 602 0
DWIDTH 7 0
BBX 5 9 1 -2
BITMAP
88
88
88
50
50
20
F8
20
20
ENDCHAR
STARTCHAR uni04B2
ENCODING 1202
SWIDTH 602 0
DWIDTH 7 0
BBX 6 10 1 -1
BITMAP
88
88
50
50
20
50
50
88
8C
04
ENDCHAR
STARTCHAR uni04B3
ENCODING 1203
SWIDTH 602 0
DWIDTH 7 0
BBX 6 8 1 -1
BITMAP
88
88
50
20
50
88
8C
04
ENDCHAR
STARTCHAR uni04B4
ENCODING 1204
SWIDTH 602 0
DWIDTH 7 0
BBX 7 10 0 -1
BITMAP
F4
24
24
24
24
24
24
24
3E
02
ENDCHAR
STARTCHAR uni04B5
ENCODING 1205
SWIDTH 602 0
DWIDTH 7 0
BBX 7 8 0 -1
BITMAP
F4
24
24
24
24
24
3E
02
ENDCHAR
STARTCHAR uni04B6
ENCODING 1206
SWIDTH 602 0
DWIDTH 7 0
BBX 6 10 1 -1
BITMAP
88
88
88
88
78
08
08
08
0C
04
ENDCHAR
STARTCHAR uni04B7
ENCODING 1207
SWIDTH 602 0
DWIDTH 7 0
BBX 6 8 1 -1
BITMAP
88
88
88
78
08
08
0C
04
ENDCHAR
STARTCHAR uni04B8
ENCODING 1208
SWIDTH 602 0
DWIDTH 7 0
BBX 5 9 1 0
BITMAP
88
88
A8
A8
78
28
28
08
08
ENDCHAR
STARTCHAR uni04B9
ENCODING 1209
SWIDTH 602 0
DWIDTH 7 0
BBX 5 7 1 0
BITMAP
88
A8
A8
78
28
28
08
ENDCHAR
STARTCHAR uni04BA
ENCODING 1210
SWIDTH 602 0
DWIDTH 7 0
BBX 5 9 1 0
BITMAP
80
80
80
80
F0
88
88
88
88
ENDCHAR
STARTCHAR uni04BB
ENCODING 1211
SWIDTH 602 0
DWIDTH 7 0
BBX 5 7 1 0
BITMAP
80
80
80
F0
88
88
88
ENDCHAR
STARTCHAR uni04BC
ENCODING 1212
SWIDTH 602 0
DWIDTH 7 0
BBX 7 9 0 0
BITMAP
1C
22
A2
A2
7E
20
20
12
0C
ENDCHAR
STARTCHAR uni04BD
ENCODING 1213
SWIDTH 602 0
DWIDTH 7 0
BBX 7 7 0 0
BITMAP
1C
A2
A2
7E
20
22
1C
ENDCHAR
STARTCHAR uni04BE
ENCODING 1214
SWIDTH 602 0
DWIDTH 7 0
BBX 7 11 0 -2
BITMAP
1C
22
A2
A2
7E
20
20
12
0C
10
0C
ENDCHAR
STARTCHAR uni04BF
ENCODING 1215
SWIDTH 602 0
DWIDTH 7 0
BBX 7 9 0 -2
BITMAP
1C
A2
A2
7E
20
22
1C
10
0C
ENDCHAR
STARTCHAR uni04C0
ENCODING 1216
SWIDTH 602 0
DWIDTH 7 0
BBX 5 9 1 0
BITMAP
F8
20
20
20
20
20
20
20
F8
ENDCHAR
STARTCHAR uni04C1
ENCODING 1217
SWIDTH 602 0
DWIDTH 7 0
BBX 5 11 1 0
BITMAP
70
00
A8
A8
A8
70
20
70
A8
A8
A8
ENDCHAR
STARTCHAR uni04C2
ENCODING 1218
SWIDTH 602 0
DWIDTH 7 0
BBX 5 10 1 0
BITMAP
88
70
00
A8
A8
70
20
70
A8
A8
ENDCHAR
STARTCHAR uni04C3
ENCODING 1219
SWIDTH 602 0
DWIDTH 7 0
BBX 6 11 1 -2
BITMAP
84
88
90
A0
E0
90
88
84
84
04
18
ENDCHAR
STARTCHAR uni04C4
ENCODING 1220
SWIDTH 602 0
DWIDTH 7 0
BBX 5 9 1 -2
BITMAP
88
90
A0
E0
90
88
88
08
30
ENDCHAR
STARTCHAR uni04C7
ENCODING 1223
SWIDTH 602 0
DWIDTH 7 0
BBX 5 11 1 -2
BITMAP
88
88
88
88
F8
88
88
88
88
08
30
ENDCHAR
STARTCHAR uni04C8
ENCODING 1224
SWIDTH 602 0
DWIDTH 7 0
BBX 5 9 1 -2
BITMAP
88
88
88
F8
88
88
88
08
30
ENDCHAR
STARTCHAR uni04CB
ENCODING 1227
SWIDTH 602 0
DWIDTH 7 0
BBX 5 10 1 -1
BITMAP
88
88
88
88
78
08
08
08
18
10
ENDCHAR
STARTCHAR uni04CC
ENCODING 1228
SWIDTH 602 0
DWIDTH 7 0
BBX 5 8 1 -1
BITMAP
88
88
88
78
08
08
18
10
ENDCHAR
STARTCHAR uni04D0
ENCODING 1232
SWIDTH 602 0
DWIDTH 7 0
BBX 6 11 1 0
BITMAP
48
30
00
30
30
48
48
FC
84
84
84
ENDCHAR
STARTCHAR uni04D1
ENCODING 1233
SWIDTH 602 0
DWIDTH 7 0
BBX 6 10 1 0
BITMAP
50
20
00
70
88
08
78
88
88
74
ENDCHAR
STARTCHAR uni04D2
ENCODING 1234
SWIDTH 602 0
DWIDTH 7 0
BBX 6 11 1 0
BITMAP
48
48
00
30
30
48
48
FC
84
84
84
ENDCHAR
STARTCHAR uni04D3
ENCODING 1235
SWIDTH 602 0
DWIDTH 7 0
BBX 6 10 1 0
BITMAP
50
50
00
70
88
08
78
88
88
74
ENDCHAR
STARTCHAR uni04D4
ENCODING 1236
SWIDTH 602 0
DWIDTH 7 0
BBX 7 9 0 0
BITMAP
3E
30
50
50
5E
F0
90
90
9E
ENDCHAR
STARTCHAR uni04D5
ENCODING 1237
SWIDTH 602 0
DWIDTH 7 0
BBX 7 7 0 0
BITMAP
6C
12
12
7E
90
90
6E
ENDCHAR
STARTCHAR uni04D6
ENCODING 1238
SWIDTH 602 0
DWIDTH 7 0
BBX 5 11 1 0
BITMAP
88
70
00
F8
80
80
F0
80
80
80
F8
ENDCHAR
STARTCHAR uni04D7
ENCODING 1239
SWIDTH 602 0
DWIDTH 7 0
BBX 5 10 1 0
BITMAP
50
20
00
70
88
88
F8
80
88
70
ENDCHAR
STARTCHAR uni04D8
ENCODING 1240
SWIDTH 602 0
DWIDTH 7 0
BBX 6 9 1 0
BITMAP
70
88
04
04
FC
84
84
48
30
ENDCHAR
STARTCHAR uni04D9
ENCODING 1241
SWIDTH 602 0
DWIDTH 7 0
BBX 5 7 1 0
BITMAP
70
88
08
F8
88
88
70
ENDCHAR
STARTCHAR uni04DA
ENCODING 1242
SWIDTH 602 0
DWIDTH 7 0
BBX 6 11 1 0
BITMAP
48
48
00
70
88
04
04
FC
84
48
30
ENDCHAR
STARTCHAR uni04DB
ENCODING 1243
SWIDTH 602 0
DWIDTH 7 0
BBX 5 10 1 0
BITMAP
50
50
00
70
88
08
F8
88
88
70
ENDCHAR
STARTCHAR uni04DC
ENCODING 1244
SWIDTH 602 0
DWIDTH 7 0
BBX 5 11 1 0
BITMAP
50
50
00
A8
A8
70
20
70
A8
A8
A8
ENDCHAR
STARTCHAR uni04DD
ENCODING 1245
SWIDTH 602 0
DWIDTH 7 0
BBX 5 10 1 0
BITMAP
50
50
00
A8
A8
70
20
70
A8
A8
ENDCHAR
STARTCHAR uni04DE
ENCODING 1246
SWIDTH 602 0
DWIDTH 7 0
BBX 5 11 1 0
BITMAP
50
50
00
70
88
08
70
08
08
88
70
ENDCHAR
STARTCHAR uni04DF
ENCODING 1247
SWIDTH 602 0
DWIDTH 7 0
BBX 5 10 1 0
BITMAP
50
50
00
F0
08
08
70
08
08
F0
ENDCHAR
STARTCHAR uni04E0
ENCODING 1248
SWIDTH 602 0
DWIDTH 7 0
BBX 5 9 1 0
BITMAP
F8
08
10
20
70
08
08
88
70
ENDCHAR
STARTCHAR uni04E1
ENCODING 1249
SWIDTH 602 0
DWIDTH 7 0
BBX 5 9 1 -2
BITMAP
F8
08
10
20
70
08
08
88
70
ENDCHAR
STARTCHAR uni04E2
ENCODING 1250
SWIDTH 602 0
DWIDTH 7 0
BBX 5 10 1 0
BITMAP
70
00
88
98
98
A8
A8
C8
C8
88
ENDCHAR
STARTCHAR uni04E3
ENCODING 1251
SWIDTH 602 0
DWIDTH 7 0
BBX 5 9 1 0
BITMAP
70
00
88
88
98
A8
C8
88
88
ENDCHAR
STARTCHAR uni04E4
ENCODING 1252
SWIDTH 602 0
DWIDTH 7 0
BBX 5 11 1 0
BITMAP
50
50
00
88
98
98
A8
A8
C8
C8
88
ENDCHAR
STARTCHAR uni04E5
ENCODING 1253
SWIDTH 602 0
DWIDTH 7 0
BBX 5 10 1 0
BITMAP
50
50
00
88
88
98
A8
C8
88
88
ENDCHAR
STARTCHAR uni04E6
ENCODING 1254
SWIDTH 602 0
DWIDTH 7 0
BBX 6 11 1 0
BITMAP
48
48
00
30
48
84
84
84
84
48
30
ENDCHAR
STARTCHAR uni04E7
ENCODING 1255
SWIDTH 602 0
DWIDTH 7 0
BBX 5 10 1 0
BITMAP
50
50
00
70
88
88
88
88
88
70
ENDCHAR
STARTCHAR uni04E8
ENCODING 1256
SWIDTH 602 0
DWIDTH 7 0
BBX 6 9 1 0
BITMAP
30
48
84
84
FC
84
84
48
30
ENDCHAR
STARTCHAR uni04E9
ENCODING 1257
SWIDTH 602 0
DWIDTH 7 0
BBX 5 7 1 0
BITMAP
70
88
88
F8
88
88
70
ENDCHAR
STARTCHAR uni04EA
ENCODING 1258
SWIDTH 602 0
DWIDTH 7 0
BBX 6 11 1 0
BITMAP
48
48
00
30
48
84
FC
84
84
48
30
ENDCHAR
STARTCHAR uni04EB
ENCODING 1259
SWIDTH 602 0
DWIDTH 7 0
BBX 5 10 1 0
BITMAP
50
50
00
70
88
88
F8
88
88
70
ENDCHAR
STARTCHAR uni04EC
ENCODING 1260
SWIDTH 602 0
DWIDTH 7 0
BBX 5 11 1 0
BITMAP
50
50
00
E0
90
08
78
08
08
10
E0
ENDCHAR
STARTCHAR uni04ED
ENCODING 1261
SWIDTH 602 0
DWIDTH 7 0
BBX 5 10 1 0
BITMAP
50
50
00
E0
10
08
78
08
10
E0
ENDCHAR
STARTCHAR uni04EE
ENCODING 1262
SWIDTH 602 0
DWIDTH 7 0
BBX 5 10 1 0
BITMAP
70
00
88
88
50
50
20
20
40
80
ENDCHAR
STARTCHAR uni04EF
ENCODING 1263
SWIDTH 602 0
DWIDTH 7 0
BBX 5 11 1 -2
BITMAP
70
00
88
88
88
50
50
20
20
40
C0
ENDCHAR
STARTCHAR uni04F0
ENCODING 1264
SWIDTH 602 0
DWIDTH 7 0
BBX 5 11 1 0
BITMAP
50
50
00
88
88
50
50
20
20
40
80
ENDCHAR
STARTCHAR uni04F1
ENCODING 1265
SWIDTH 602 0
DWIDTH 7 0
BBX 5 12 1 -2
BITMAP
50
50
00
88
88
88
50
50
20
20
40
C0
ENDCHAR
STARTCHAR uni04F2
ENCODING 1266
SWIDTH 602 0
DWIDTH 7 0
BBX 6 11 1 0
BITMAP
24
48
00
88
88
50
50
20
20
40
80
ENDCHAR
STARTCHAR uni04F3
ENCODING 1267
SWIDTH 602 0
DWIDTH 7 0
BBX 6 12 1 -2
BITMAP
24
48
00
88
88
88
50
50
20
20
40
C0
ENDCHAR
STARTCHAR uni04F4
ENCODING 1268
SWIDTH 602 0
DWIDTH 7 0
BBX 5 11 1 0
BITMAP
50
50
00
88
88
88
78
08
08
08
08
ENDCHAR
STARTCHAR uni04F5
ENCODING 1269
SWIDTH 602 0
DWIDTH 7 0
BBX 5 10 1 0
BITMAP
50
50
00
88
88
88
78
08
08
08
ENDCHAR
STARTCHAR uni04F8
ENCODING 1272
SWIDTH 602 0
DWIDTH 7 0
BBX 6 11 1 0
BITMAP
48
48
00
84
84
E4
94
94
94
94
E4
ENDCHAR
STARTCHAR uni04F9
ENCODING 1273
SWIDTH 602 0
DWIDTH 7 0
BBX 6 10 1 0
BITMAP
48
48
00
84
84
84
E4
94
94
E4
ENDCHAR
ENDFONT
